<svg xmlns="http://www.w3.org/2000/svg" viewBox="0 0 1000 1000" enable-background="new 0 0 1000 1000"><path d="M759.4 10h-518.8c-126.8 0-230.6 103.8-230.6 230.6v518.8c0 126.8 103.8 230.6 230.6 230.6h518.8c126.8 0 230.6-103.8 230.6-230.6v-518.8c0-126.8-103.8-230.6-230.6-230.6zm173 749.4c0 95.3-77.6 172.9-172.9 172.9h-518.9c-95.3 0-172.9-77.6-172.9-172.9v-345.9h184.9c-16.5 35.2-26.3 74-26.3 115.3 0 151 122.8 273.8 273.8 273.8s273.8-122.8 273.8-273.8c0-41.3-9.9-80.1-26.3-115.3h184.9v345.9h-.1zm-216.2-230.6c0 119.2-97 216.2-216.2 216.2s-216.2-97-216.2-216.2c0-119.2 97-216.2 216.2-216.2s216.2 97 216.2 216.2zm-5.7-172.9c-50.2-61.1-125.4-100.9-210.5-100.9s-160.3 39.8-210.5 100.9h-221.9v-115.3c0-95.3 77.6-172.9 172.9-172.9h518.8c95.3 0 172.9 77.6 172.9 172.9v115.3h-221.7zm132.7-189v74.8c0 17.2-14.1 31.3-31.2 31.3h-78.9c-17.3-.1-31.4-14.1-31.4-31.3v-74.8c0-17.2 14.1-31.3 31.4-31.3h78.9c17.2 0 31.2 14.1 31.2 31.3z"/></svg>