<svg xmlns="http://www.w3.org/2000/svg" viewBox="0 0 1000 1000" enable-background="new 0 0 1000 1000"><path d="M988.6 260.9c7.8 21.8-17.7 71.8-76.5 150-8.2 10.9-19.2 25.3-33.2 43.4-26.5 34-41.8 56.3-45.9 66.8-5.8 13.9-3.4 27.7 7.1 41.3 5.8 7.1 19.6 21.1 41.3 41.8h.5l2 2c48 44.6 80.4 82.1 97.5 112.7 1 1.7 2.1 3.8 3.3 6.4s2.4 7.1 3.6 13.5c1.2 6.5 1.1 12.2-.3 17.3-1.4 5.1-5.6 9.8-12.7 14s-17.2 6.4-30.1 6.4l-130.6 2c-8.2 1.7-17.7.8-28.6-2.5-10.9-3.4-19.7-7.1-26.5-11.2l-10.2-6.1c-10.2-7.1-22.1-18-35.7-32.7s-25.2-27.8-34.9-39.5-20.1-21.6-31.1-29.6-20.7-10.6-28.8-7.9c-1 .3-2.4.9-4.1 1.8-1.7.9-4.6 3.3-8.7 7.4s-7.8 9.1-11 15.1-6.1 14.8-8.7 26.5c-2.6 11.7-3.7 24.9-3.3 39.5 0 5.1-.6 9.8-1.8 14-1.2 4.3-2.5 7.4-3.8 9.4l-2 2.5c-6.1 6.5-15.1 10.2-27 11.2h-58.7c-24.2 1.4-49-1.5-74.5-8.4-25.5-7-47.9-16-67.1-27-19.2-11-36.7-22.3-52.5-33.7-15.8-11.4-27.8-21.2-36-29.3l-12.7-12.3c-3.4-3.4-8.1-8.5-14-15.3-5.9-6.8-18.1-22.3-36.5-46.4s-36.4-49.8-54.1-77c-17.7-27.2-38.5-63.1-62.5-107.7s-46.2-90.8-66.6-138.8c-2-5.4-3.1-10-3.1-13.8s.5-6.5 1.5-8.2l2-3.1c5.1-6.5 14.8-9.7 29.1-9.7l139.8-1c4.1.7 8 1.8 11.7 3.3s6.5 3 8.2 4.3l2.5 1.5c5.4 3.7 9.5 9.2 12.3 16.3 6.8 17 14.6 34.6 23.5 52.8 8.8 18.2 15.8 32 20.9 41.6l8.2 14.8c9.9 20.4 19.4 38.1 28.6 53.1 9.2 15 17.4 26.6 24.7 34.9 7.3 8.3 14.4 14.9 21.2 19.7 6.8 4.8 12.6 7.2 17.3 7.1 4.8 0 9.4-.9 13.8-2.5.7-.3 1.5-1.2 2.5-2.5s3-5.1 6.1-11.2c3.1-6.1 5.4-14.1 6.9-24 1.5-9.8 3.1-23.6 4.9-41.3 1.7-17.7 1.7-39 0-63.8-.7-13.6-2.2-26-4.6-37.3-2.4-11.2-4.8-19.1-7.1-23.5l-3.1-6.1c-8.5-11.6-23-18.9-43.4-21.9-4.4-.7-3.6-4.8 2.5-12.3 5.8-6.5 12.3-11.6 19.4-15.3 18-8.8 58.7-12.9 121.9-12.3 27.9.3 50.8 2.6 68.9 6.6 6.8 1.7 12.5 4 17.1 6.9 4.6 2.9 8.1 7 10.5 12.3 2.4 5.3 4.2 10.7 5.4 16.3 1.2 5.6 1.8 13.3 1.8 23.2 0 9.9-.2 19.2-.5 28.1-.3 8.8-.8 20.8-1.3 36s-.8 29.2-.8 42.1c0 3.7-.2 10.9-.5 21.4-.3 10.6-.4 18.7-.3 24.5.2 5.8.8 12.7 1.8 20.7s3 14.6 5.9 19.9c2.9 5.3 6.7 9.4 11.5 12.5 2.7.7 5.6 1.4 8.7 2 3.1.7 7.5-1.2 13.3-5.6s12.2-10.3 19.4-17.6c7.2-7.3 16-18.7 26.5-34.2 10.5-15.4 22.1-33.7 34.7-54.9 20.4-35.4 38.6-73.6 54.6-114.8 1.4-3.4 3.1-6.4 5.1-8.9 2.1-2.6 3.9-4.3 5.6-5.4l2-1.5 2.5-1.3 6.6-1.5s7.8-1.1 10.2-.3l146.9-1c13.3-1.7 24.1-1.3 32.7 1.3s13.8 5.4 15.8 8.4l3.1 5.6z"/></svg>